<?xml version="1.0" encoding="UTF-8" standalone="no"?>
<svg
   xmlns:dc="http://purl.org/dc/elements/1.1/"
   xmlns:cc="http://creativecommons.org/ns#"
   xmlns:rdf="http://www.w3.org/1999/02/22-rdf-syntax-ns#"
   xmlns:svg="http://www.w3.org/2000/svg"
   xmlns="http://www.w3.org/2000/svg"
   xmlns:sodipodi="http://sodipodi.sourceforge.net/DTD/sodipodi-0.dtd"
   xmlns:inkscape="http://www.inkscape.org/namespaces/inkscape"
   width="66.675003mm"
   height="26.987499mm"
   viewBox="0 0 66.675003 26.987499"
   version="1.1"
   id="svg866"
   inkscape:version="1.0.1 (3bc2e813f5, 2020-09-07)"
   sodipodi:docname="beercode.svg">
  <defs
     id="defs860" />
  <sodipodi:namedview
     id="base"
     pagecolor="#ffffff"
     bordercolor="#666666"
     borderopacity="1.0"
     inkscape:pageopacity="0.0"
     inkscape:pageshadow="2"
     inkscape:zoom="2.8"
     inkscape:cx="167.75091"
     inkscape:cy="69.278777"
     inkscape:document-units="mm"
     inkscape:current-layer="layer1"
     inkscape:document-rotation="0"
     showgrid="false"
     fit-margin-top="0"
     fit-margin-left="0"
     fit-margin-right="0"
     fit-margin-bottom="0"
     inkscape:window-width="1366"
     inkscape:window-height="705"
     inkscape:window-x="247"
     inkscape:window-y="1072"
     inkscape:window-maximized="1" />
  <metadata
     id="metadata863">
    <rdf:RDF>
      <cc:Work
         rdf:about="">
        <dc:format>image/svg+xml</dc:format>
        <dc:type
           rdf:resource="http://purl.org/dc/dcmitype/StillImage" />
        <dc:title></dc:title>
      </cc:Work>
    </rdf:RDF>
  </metadata>
  <g
     inkscape:label="Layer 1"
     inkscape:groupmode="layer"
     id="layer1">
    <g
       id="g1519">
      <path
         style="fill:#FFF;stroke-width:0.264583"
         d="M 0.79375004,22.357291 V 18.520833 H 2.7424437 4.6911376 l 0.6971395,0.54837 c 0.7699344,0.60563 0.894645,1.461636 0.3262017,2.239028 l -0.3709382,0.507288 0.6355215,0.588982 0.6355215,0.588981 v 0.784744 c 0,1.146133 -0.2381162,1.594497 -1.0772566,2.028434 L 4.7887786,26.193749 H 2.7912643 0.79375004 Z M 4.6055946,25.144774 C 5.0041942,24.993227 5.3498321,24.598915 5.4564558,24.174092 L 5.636024,23.458636 5.037659,22.974109 4.4392937,22.489582 H 3.1456885 1.8520834 v 1.455209 1.455208 h 1.041109 c 0.5726102,0 1.343191,-0.114851 1.7124022,-0.255225 z M 4.2507275,21.42194 c 0.2903961,-0.155415 0.5117727,-0.551964 0.5117727,-0.916732 0,-0.775996 -0.6849922,-1.190625 -1.9669811,-1.190625 H 1.8520834 v 1.190625 1.190625 h 0.9434357 c 0.5188897,0 1.1737335,-0.123252 1.4552084,-0.273893 z m 4.7451062,0.935351 v -3.836458 h 2.6458333 2.645834 v 0.396875 0.396875 H 12.303126 10.31875 v 1.058333 1.058333 h 1.984376 1.984375 v 0.396875 0.396875 H 12.303126 10.31875 v 1.5875 1.5875 h 1.984376 1.984375 v 0.396875 0.396875 H 11.641667 8.9958337 Z m 7.9375003,0 v -3.836458 h 2.645834 2.645833 v 0.396875 0.396875 h -2.116667 -2.116667 v 1.058333 1.058333 h 2.116667 2.116667 v 0.396875 0.396875 h -2.116667 -2.116667 v 1.5875 1.5875 h 2.116667 2.116667 v 0.396875 0.396875 h -2.645833 -2.645834 z m 7.672917,0 v -3.836458 h 1.996401 1.996403 l 0.64943,0.649431 0.649433,0.649432 v 0.817803 0.817803 l -0.661458,0.661459 c -0.363802,0.363802 -0.661459,0.729176 -0.661459,0.811942 0,0.08277 0.607092,0.85126 1.349095,1.707765 l 1.349097,1.557281 h -0.778597 -0.778598 l -1.273288,-1.5875 -1.273289,-1.5875 h -0.620125 -0.620128 v 1.5875 1.5875 h -0.661459 -0.661458 z m 3.380711,-0.54417 0.588039,-0.411878 v -0.769438 -0.769438 l -0.511773,-0.273892 c -0.281474,-0.150641 -0.876787,-0.273892 -1.322916,-0.273892 h -0.811144 v 1.455208 1.455208 h 0.734877 c 0.404186,0 0.999498,-0.185345 1.322917,-0.411878 z m 6.499572,3.836567 c -2.050756,-1.313776 -2.19156,-4.795991 -0.265724,-6.571552 l 0.686922,-0.633322 1.300708,-0.124981 c 0.715386,-0.06874 1.731304,0.01713 2.257592,0.19082 l 0.956886,0.315801 v 0.640939 c 0,0.769896 0.08466,0.761949 -1.190625,0.111773 -1.23159,-0.627901 -1.762694,-0.657392 -2.739752,-0.152134 -1.318702,0.681926 -1.803906,3.026652 -0.962875,4.65303 l 0.398418,0.770452 1.003366,0.300616 1.003366,0.300616 1.045615,-0.474942 c 0.575085,-0.261218 1.134909,-0.520908 1.24405,-0.577089 0.109141,-0.05618 0.198437,0.193784 0.198437,0.555478 v 0.657624 l -0.833231,0.290466 c -0.458279,0.159756 -1.381014,0.28846 -2.050521,0.286009 l -1.217289,-0.0045 -0.835343,-0.535146 z m 8.913077,0.205577 c -0.359436,-0.181876 -0.924983,-0.733509 -1.25677,-1.225852 l -0.603256,-0.895169 v -1.509245 -1.509245 l 0.603256,-0.895168 c 0.74822,-1.110286 1.599305,-1.556536 2.968619,-1.556536 1.369314,0 2.2204,0.44625 2.96862,1.556536 l 0.603256,0.895168 v 1.509245 1.509245 l -0.603256,0.895169 c -0.331787,0.492343 -0.897334,1.043976 -1.256771,1.225852 -0.839078,0.424579 -2.584619,0.424579 -3.423698,0 z m 3.224621,-1.223372 0.85966,-0.768107 v -1.638787 -1.638787 l -0.85966,-0.768106 c -0.472814,-0.422459 -1.15356,-0.768107 -1.512772,-0.768107 -0.359211,0 -1.039958,0.345648 -1.512771,0.768107 l -0.85966,0.768106 v 1.638787 1.638787 l 0.85966,0.768107 c 0.472813,0.422458 1.15356,0.768106 1.512771,0.768106 0.359212,0 1.039958,-0.345648 1.512772,-0.768106 z m 4.704937,-2.274602 v -3.836458 l 1.918229,9.79e-4 1.918229,9.79e-4 0.862315,0.525759 c 2.523606,1.538662 2.523606,5.07878 0,6.617442 l -0.862315,0.525779 -1.918229,9.89e-4 -1.918229,9.89e-4 z m 3.497929,2.766367 c 0.541412,-0.150365 1.16649,-0.533381 1.389063,-0.851146 0.528971,-0.755213 0.528971,-3.07523 0,-3.830442 -0.422444,-0.603125 -1.855528,-1.123486 -3.101054,-1.126012 l -0.727605,-0.0015 v 3.042708 3.042708 l 0.727605,-0.0015 c 0.400182,-8.2e-4 1.170577,-0.124501 1.711991,-0.274865 z m 5.762488,-2.766367 v -3.836458 h 2.645834 2.645833 v 0.396875 0.396875 h -1.984375 -1.984375 v 1.058333 1.058333 h 1.984375 1.984375 v 0.396875 0.396875 h -1.984375 -1.984375 v 1.5875 1.5875 h 1.984375 1.984375 v 0.396875 0.396875 H 63.23542 60.589586 Z m -28.786668,-4.947708 -0.3175,-0.3175 V 12.662206 8.2323302 l 0.521462,-0.8838123 0.521462,-0.8838125 0.206142,-2.9016234 0.206142,-2.90162369 0.62583,-0.0885468 c 0.344204,-0.0487007 0.741844,0.0274702 0.883642,0.16926869 0.141798,0.14179851 0.303927,1.4198553 0.360286,2.8401263 l 0.102471,2.582311 0.535241,1.0268802 0.535239,1.0268802 v 4.5937531 4.593753 l -0.418515,0.1606 c -0.739188,0.283653 -3.433731,0.171269 -3.761902,-0.156901 z M 0.79375004,9.1281247 V 0.79374997 H 1.0583334 1.3229167 V 9.1281247 17.462499 H 1.0583334 0.79375004 Z m 1.05833336,0 V 0.79374997 H 2.1166668 2.3812501 V 9.1281247 17.462499 H 2.1166668 1.8520834 Z m 1.0583334,0 V 0.79374997 H 3.1750001 3.4395835 V 9.1281247 17.462499 H 3.1750001 2.9104168 Z m 1.0583334,0 V 0.79374997 H 4.6302085 5.2916669 V 9.1281247 17.462499 H 4.6302085 3.9687502 Z m 1.8520834,0 V 0.79374997 H 6.482292 7.1437503 V 9.1281247 17.462499 H 6.482292 5.8208336 Z m 2.6458334,0 V 0.79374997 H 8.7312504 8.9958337 V 9.1281247 17.462499 H 8.7312504 8.466667 Z m 1.0583334,0 V 0.79374997 H 9.9218754 10.31875 V 9.1281247 17.462499 H 9.9218754 9.5250004 Z m 1.8520836,0 V 0.79374997 h 0.396875 0.396875 V 9.1281247 17.462499 h -0.396875 -0.396875 z m 1.058333,0 V 0.79374997 h 0.396875 0.396875 V 9.1281247 17.462499 h -0.396875 -0.396875 z m 1.058334,0 V 0.79374997 h 0.396875 0.396875 V 9.1281247 17.462499 h -0.396875 -0.396875 z m 1.058333,0 V 0.79374997 h 0.396875 0.396875 V 9.1281247 17.462499 h -0.396875 -0.396875 z m 1.852083,0 V 0.79374997 h 0.79375 0.79375 V 9.1281247 17.462499 h -0.79375 -0.79375 z m 2.645834,0 V 0.79374997 h 0.79375 0.79375 V 9.1281247 17.462499 h -0.79375 -0.79375 z m 2.116667,0 V 0.79374997 h 0.264583 0.264583 V 9.1281247 17.462499 h -0.264583 -0.264583 z m 1.058333,0 V 0.79374997 h 0.661458 0.661459 V 9.1281247 17.462499 h -0.661459 -0.661458 z m 2.645833,0 V 0.79374997 h 0.264584 0.264583 V 9.1281247 17.462499 h -0.264583 -0.264584 z m 1.852084,0 V 0.79374997 h 0.661458 0.661459 V 9.1281247 17.462499 h -0.661459 -0.661458 z m 1.852083,0 V 0.79374997 h 0.396875 0.396875 V 9.1281247 17.462499 h -0.396875 -0.396875 z m 1.058334,0 V 0.79374997 h 0.396875 0.396875 V 9.1281247 17.462499 H 30.03021 29.633335 Z m 7.408333,0 V 0.79374997 h 0.396875 0.396875 V 9.1281247 17.462499 h -0.396875 -0.396875 z m 2.116667,0 V 0.79374997 h 0.661458 0.661459 V 9.1281247 17.462499 h -0.661459 -0.661458 z m 1.852084,0 V 0.79374997 h 0.264583 0.264583 V 9.1281247 17.462499 h -0.264583 -0.264583 z m 1.058333,0 V 0.79374997 h 0.661458 0.661459 V 9.1281247 17.462499 H 42.73021 42.068752 Z m 2.645833,0 V 0.79374997 h 0.264584 0.264583 V 9.1281247 17.462499 h -0.264583 -0.264584 z m 1.058334,0 V 0.79374997 h 0.396875 0.396875 V 9.1281247 17.462499 h -0.396875 -0.396875 z m 1.852083,0 V 0.79374997 h 0.79375 0.79375 V 9.1281247 17.462499 h -0.79375 -0.79375 z m 1.852084,0 V 0.79374997 h 0.396875 0.396875 V 9.1281247 17.462499 h -0.396875 -0.396875 z m 1.058333,0 V 0.79374997 h 0.396875 0.396875 V 9.1281247 17.462499 h -0.396875 -0.396875 z m 1.058333,0 V 0.79374997 h 0.396875 0.396875 V 9.1281247 17.462499 h -0.396875 -0.396875 z m 1.852084,0 V 0.79374997 h 0.79375 0.79375 V 9.1281247 17.462499 h -0.79375 -0.79375 z m 1.852083,0 V 0.79374997 h 0.396875 0.396875 V 9.1281247 17.462499 h -0.396875 -0.396875 z m 2.116667,0 V 0.79374997 h 0.661458 0.661459 V 9.1281247 17.462499 h -0.661459 -0.661458 z m 2.645833,0 V 0.79374997 h 0.264584 0.264583 V 9.1281247 17.462499 h -0.264583 -0.264584 z m 1.058334,0 V 0.79374997 h 0.264583 0.264583 V 9.1281247 17.462499 h -0.264583 -0.264583 z m 1.058333,0 V 0.79374997 h 0.661458 0.661459 V 9.1281247 17.462499 h -0.661459 -0.661458 z m 2.645834,0 V 0.79374997 h 0.264583 0.264583 V 9.1281247 17.462499 H 65.087503 64.82292 Z m 1.176374,0 c 1.06e-4,-4.6566665 0.03611,-6.5244029 0.08,-4.1505252 0.0439,2.3738775 0.04381,6.1838775 -1.93e-4,8.4666665 -0.044,2.282789 -0.07991,0.340525 -0.07981,-4.3161413 z"
         id="path1521" />
    </g>
  </g>
</svg>
