<?xml version="1.0" encoding="UTF-8" standalone="no"?>
<svg
   xmlns:dc="http://purl.org/dc/elements/1.1/"
   xmlns:cc="http://creativecommons.org/ns#"
   xmlns:rdf="http://www.w3.org/1999/02/22-rdf-syntax-ns#"
   xmlns:svg="http://www.w3.org/2000/svg"
   xmlns="http://www.w3.org/2000/svg"
   xmlns:sodipodi="http://sodipodi.sourceforge.net/DTD/sodipodi-0.dtd"
   xmlns:inkscape="http://www.inkscape.org/namespaces/inkscape"
   width="33.866665mm"
   height="123.825mm"
   viewBox="0 0 33.866665 123.825"
   version="1.1"
   id="svg1531"
   sodipodi:docname="beercode-bottle.svg"
   inkscape:version="1.0.1 (3bc2e813f5, 2020-09-07)">
  <defs
     id="defs1525" />
  <sodipodi:namedview
     id="base"
     pagecolor="#ffffff"
     bordercolor="#666666"
     borderopacity="1.0"
     inkscape:pageopacity="0"
     inkscape:pageshadow="2"
     inkscape:zoom="1.4"
     inkscape:cx="1.2159576"
     inkscape:cy="268.55351"
     inkscape:document-units="mm"
     inkscape:current-layer="layer1"
     inkscape:document-rotation="0"
     showgrid="false"
     fit-margin-top="0"
     fit-margin-left="0"
     fit-margin-right="0"
     fit-margin-bottom="0"
     inkscape:window-width="1858"
     inkscape:window-height="1057"
     inkscape:window-x="-8"
     inkscape:window-y="-8"
     inkscape:window-maximized="1" />
  <metadata
     id="metadata1528">
    <rdf:RDF>
      <cc:Work
         rdf:about="">
        <dc:format>image/svg+xml</dc:format>
        <dc:type
           rdf:resource="http://purl.org/dc/dcmitype/StillImage" />
        <dc:title></dc:title>
      </cc:Work>
    </rdf:RDF>
  </metadata>
  <g
     inkscape:label="Layer 1"
     inkscape:groupmode="layer"
     id="layer1">
    <path
       style="fill:#ffffff;stroke-width:0.264583;fill-opacity:1"
       d="m 3.231696,123.11093 c -0.436562,-0.26691 -0.9323,-0.65342 -1.101639,-0.8589 L 1.822168,121.87842 1.673378,111.69196 C 1.591538,106.08941 1.44437,98.380115 1.346327,94.560193 L 1.168065,87.614881 H 16.858268 32.54847 l -0.222827,12.10469 c -0.122557,6.657569 -0.24158,14.281329 -0.264498,16.941669 l -0.04167,4.83699 -0.342156,0.63932 c -0.188185,0.35163 -0.804016,0.82413 -1.368515,1.04999 l -1.026358,0.41067 -12.6285,-9.9e-4 -12.6285,-9.9e-4 z M 1.511905,84.043006 v -1.984375 h 1.025936 c 1.154419,0 1.746099,0.508476 1.498702,1.287954 -0.0907,0.285777 -0.04101,0.596173 0.110433,0.689769 0.37462,0.231529 0.348129,1.283242 -0.04215,1.673527 -0.174625,0.174625 -0.829469,0.3175 -1.455209,0.3175 H 1.511909 Z M 3.569359,85.187008 3.880564,84.875806 3.589879,84.52555 C 3.430003,84.332912 3.016117,84.175297 2.670133,84.175297 H 2.041071 v 0.661459 0.661458 h 0.608542 c 0.334698,0 0.748584,-0.140041 0.919746,-0.311206 z M 3.231696,83.116964 c 0,-0.218281 -0.26789,-0.434922 -0.595312,-0.481423 l -0.595313,-0.08455 v 0.56597 0.56597 l 0.595313,-0.08455 c 0.327422,-0.0465 0.595312,-0.263139 0.595312,-0.48142 z m 2.2489594,0.926042 v -1.984375 h 1.322916 c 0.727604,0 1.322917,0.119062 1.322917,0.264583 0,0.145521 -0.47625,0.264583 -1.058333,0.264583 h -1.058334 v 0.529167 0.529167 h 1.058334 c 0.582083,0 1.058333,0.119062 1.058333,0.264583 0,0.145521 -0.47625,0.264583 -1.058333,0.264583 h -1.058334 v 0.661459 0.661458 h 1.058334 c 0.582083,0 1.058333,0.119063 1.058333,0.264583 0,0.145521 -0.595313,0.264584 -1.322917,0.264584 h -1.322916 z m 3.704166,0 v -1.984375 h 1.3229156 c 0.727605,0 1.322917,0.119062 1.322917,0.264583 0,0.145521 -0.47625,0.264583 -1.058333,0.264583 H 9.7139884 v 0.529167 0.529167 h 1.0583326 c 0.582083,0 1.058333,0.119062 1.058333,0.264583 0,0.145521 -0.47625,0.264583 -1.058333,0.264583 H 9.7139884 v 0.661459 0.661458 h 1.0583326 c 0.582083,0 1.058333,0.119063 1.058333,0.264583 0,0.145521 -0.595312,0.264584 -1.322917,0.264584 H 9.1848214 Z m 3.7041656,0 v -1.984375 h 1.064006 1.064006 l 0.305833,0.671232 0.305834,0.671232 -0.43708,0.437081 -0.43708,0.437078 0.668206,0.876065 0.668205,0.876062 h -0.402419 c -0.22133,0 -0.666499,-0.357188 -0.989264,-0.79375 -0.322764,-0.436563 -0.743047,-0.79375 -0.933962,-0.79375 h -0.347118 v 0.79375 c 0,0.436562 -0.119062,0.79375 -0.264583,0.79375 -0.152871,0 -0.264584,-0.837848 -0.264584,-1.984375 z m 1.719792,-0.79375 v -0.529167 l -0.595313,-0.08455 -0.595312,-0.08455 v 0.698262 0.698262 l 0.595312,-0.08455 0.595313,-0.08455 z m 2.528615,2.264031 -0.54424,-0.54424 v -0.926041 -0.926042 l 0.54424,-0.54424 0.544239,-0.54424 0.974914,0.08122 0.974914,0.08122 0.09198,0.484976 0.09197,0.484976 -0.562789,-0.301196 C 18.544856,82.480894 17.7382,82.725147 17.359403,83.432937 l -0.291524,0.544716 0.275676,0.605041 c 0.345249,0.757738 1.173868,1.037109 1.909067,0.643641 l 0.562789,-0.301196 -0.09197,0.484976 -0.09198,0.484976 -0.974914,0.08122 -0.974914,0.08122 z m 3.953676,-0.01507 -0.529166,-0.529167 v -0.926044 -0.926042 l 0.529166,-0.529167 c 1.025389,-1.02539 2.70371,-0.518834 3.066202,0.925449 0.487948,1.94414 -1.694304,3.356864 -3.066202,1.984968 z m 1.869478,-0.273891 0.511772,-0.273894 v -0.922404 -0.922406 l -0.69254,-0.315542 -0.692539,-0.315543 -0.498085,0.615109 c -0.605396,0.747633 -0.620107,1.058286 -0.08621,1.820532 0.460599,0.657598 0.713863,0.712181 1.4576,0.314148 z m 2.363855,-1.181317 v -1.984375 h 0.999462 c 0.549706,0 1.26408,0.185346 1.587499,0.411877 l 0.588039,0.411879 v 1.043329 1.043331 l -0.529166,0.529167 -0.529167,0.529167 h -1.058333 -1.058334 z m 2.057795,1.043331 C 28.4904,84.310124 27.760856,82.5878 26.323865,82.5878 H 25.85357 v 1.455209 1.455208 h 0.470295 c 0.258663,0 0.734914,-0.185346 1.058333,-0.411877 z m 2.175539,-1.043331 v -1.984375 h 1.322916 c 0.727604,0 1.322917,0.119062 1.322917,0.264583 0,0.145521 -0.47625,0.264583 -1.058334,0.264583 h -1.058333 v 0.529164 0.529167 h 1.058333 c 0.582084,0 1.058334,0.119062 1.058334,0.264583 0,0.145521 -0.47625,0.264583 -1.058334,0.264583 h -1.058333 v 0.661459 0.661458 h 1.058333 c 0.582084,0 1.058334,0.119063 1.058334,0.264583 0,0.145521 -0.595313,0.264584 -1.322917,0.264584 H 29.557737 Z M 1.362326,73.327381 c 0,-3.710782 0.03721,-5.228828 0.08269,-3.373438 0.04548,1.855391 0.04548,4.891485 0,6.746875 -0.04548,1.855391 -0.08269,0.337344 -0.08269,-3.373437 z m 0.414162,0 v -6.614584 h 0.264583 0.264584 v 6.614584 6.614583 H 2.041071 1.776488 Z m 0.79375,0 v -6.614584 h 0.264583 0.264584 v 6.614584 6.614583 H 2.834821 2.570238 Z m 1.5875,0 v -6.614584 h 0.529167 0.5291664 v 6.614584 6.614583 H 4.686905 4.157738 Z m 2.1166674,0 v -6.614584 h 0.529166 0.529167 v 6.614584 6.614583 h -0.529167 -0.529166 z m 1.322916,0 v -6.614584 h 0.396875 0.396875 v 6.614584 6.614583 h -0.396875 -0.396875 z m 1.058333,0 v -6.614584 h 0.529167 0.529167 v 6.614584 6.614583 h -0.529167 -0.529167 z m 2.1166666,0 v -6.614584 h 0.264583 0.264583 v 6.614584 6.614583 h -0.264583 -0.264583 z m 1.5875,0 v -6.614584 h 0.529166 0.529167 v 6.614584 6.614583 h -0.529167 -0.529166 z m 1.322916,0 v -6.614584 h 0.264584 0.264583 v 6.614584 6.614583 h -0.264583 -0.264584 z m 0.79375,0 v -6.614584 h 0.396875 0.396875 v 6.614584 6.614583 h -0.396875 -0.396875 z m 1.5875,0 v -6.614584 h 0.661459 0.661458 v 6.614584 6.614583 h -0.661458 -0.661459 z m 1.5875,0 v -6.614584 h 0.264583 0.264584 v 6.614584 6.614583 H 17.91607 17.651487 Z m 0.79375,0 v -6.614584 h 0.661458 0.661459 v 6.614584 6.614583 h -0.661459 -0.661458 z m 2.116667,0 v -6.614584 h 0.396875 0.396875 v 6.614584 6.614583 h -0.396875 -0.396875 z m 1.5875,0 v -6.614584 h 0.661458 0.661458 v 6.614584 6.614583 h -0.661458 -0.661458 z m 1.5875,0 v -6.614584 h 0.264583 0.264583 v 6.614584 6.614583 h -0.264583 -0.264583 z m 0.793749,0 v -6.614584 h 0.529167 0.529167 v 6.614584 6.614583 H 25.05982 24.530653 Z m 2.116667,0 v -6.614584 h 0.264583 0.264584 v 6.614584 6.614583 H 26.911903 26.64732 Z m 0.79375,0 v -6.614584 h 0.264583 0.264584 v 6.614584 6.614583 H 27.705653 27.44107 Z m 1.5875,0 v -6.614584 h 0.661458 0.661459 v 6.614584 6.614583 H 29.690028 29.02857 Z m 1.5875,0 v -6.614584 h 0.264583 0.264583 v 6.614584 6.614583 H 30.880653 30.61607 Z m 0.79375,0 v -6.614584 h 0.264583 0.264583 v 6.614584 6.614583 H 31.674403 31.40982 Z m 0.908754,0 c 0,-3.710782 0.03721,-5.228828 0.08269,-3.373438 0.04548,1.855391 0.04548,4.891485 0,6.746875 -0.04548,1.855391 -0.08269,0.337344 -0.08269,-3.373437 z M 1.247322,61.809658 V 57.700271 L 1.776668,56.12893 c 0.59468,-1.765279 2.70002,-5.477042 4.3518364,-7.672383 0.602209,-0.800364 1.205192,-1.633802 1.339963,-1.852083 0.273035,-0.442219 0.509411,-2.245109 1.474299,-11.244792 0.494521,-4.612484 1.022985,-8.706754 1.5367846,-11.90625 0.140214,-0.873125 0.326024,-2.182812 0.412912,-2.910416 0.08689,-0.727604 0.284646,-2.366084 0.439463,-3.641065 l 0.281486,-2.318149 -0.341843,-1.386018 c -0.188013,-0.76231 -0.615383,-1.722575 -0.949712,-2.133923 -0.7614776,-0.9369 -0.7580246,-1.1154006 0.05248,-2.7129831 0.824621,-1.625404 0.824749,-1.8649987 0.0011,-2.0717198 C 9.9810044,6.1801511 9.7186674,5.92825 9.7255924,5.6551526 9.7444624,4.9109607 10.421391,3.217575 10.920454,2.6661166 l 0.463035,-0.5116523 h 5.474235 5.474236 l 0.371736,0.4630208 c 0.639326,0.7963207 0.990629,1.5545652 1.174605,2.5352431 l 0.17761,0.9467416 -0.688677,0.172847 c -0.844959,0.2120709 -0.845475,0.2459019 -0.02833,1.8565773 0.821898,1.6200353 0.828398,2.1518749 0.03675,3.0069259 l -0.625814,0.675936 -0.314098,1.656469 c -0.172753,0.911058 -0.244103,1.769723 -0.158554,1.908144 0.08555,0.138422 0.270598,1.536136 0.41122,3.106031 0.140622,1.569896 0.378696,3.628262 0.529053,4.574147 0.589189,3.70654 1.13794,8.017894 2.087933,16.404167 0.156603,1.382448 0.40923,3.436414 0.561393,4.564369 l 0.27666,2.050828 2.239817,3.353943 c 2.023081,3.0294 2.878579,4.562295 3.782864,6.778204 l 0.302006,0.740056 v 4.485465 4.485468 H 16.857737 1.247322 Z"
       id="path4442" />
  </g>
</svg>
